<svg viewBox="0 0 377 424" xmlns="http://www.w3.org/2000/svg" fill="none" fill-rule="evenodd">
  <path d="M166.18 407.15L16.2 320.45c-10-5.7-16.15-16.4-16.15-27.9V119.18c0-11.5 6.16-22.2 16.15-27.9l149.98-86.7c10-5.7 22.3-5.7 32.18 0l149.97 86.7c10 5.7 16.15 16.4 16.15 27.9v173.27c0 11.5-6.16 22.2-16.15 27.9l-149.97 86.7c-4.88 2.9-10.46 4.4-16.04 4.4-5.57 0-11.15-1.4-16.14-4.3zM20.5 98.83l4.4 7.55c-4.52 2.67-7.42 7.56-7.42 12.8v173.26c0 5.23 2.8 10.23 7.43 12.8l150 86.68c4.52 2.68 10.2 2.68 14.74 0l149.98-86.7c4.53-2.67 7.44-7.55 7.44-12.78V119.17c0-5.23-2.8-10.23-7.44-12.8l-149.98-86.7c-4.53-2.66-10.22-2.66-14.75 0l-150.1 86.7-4.3-7.54z"/>
  <path d="M182.32 335.68c-3.6 0-7.3-.93-10.57-2.8l-94.1-54.27c-6.5-3.7-10.57-10.8-10.57-18.35V151.6c0-7.56 4.07-14.54 10.57-18.37l94.1-54.28c6.5-3.7 14.64-3.7 21.15 0l94.1 54.28c6.5 3.72 10.57 10.8 10.57 18.36v108.65c0 7.56-4.07 14.53-10.57 18.36l-94.1 54.3c-3.26 1.85-6.97 2.78-10.58 2.78zm0-19.76c-3.05 0-6.2-.8-8.96-2.36l-79.77-46c-5.52-3.17-8.97-9.18-8.97-15.58v-92.12c0-6.4 3.45-12.3 8.96-15.56l79.76-46c5.52-3.17 12.4-3.17 17.93 0l79.76 46c5.5 3.15 8.96 9.16 8.96 15.56v92.12c0 6.4-3.45 12.3-8.96 15.57l-79.77 46c-2.77 1.58-5.92 2.37-8.98 2.37z"/>
  <path d="M156.65 258.97c-1.5 0-3.02-.35-4.3-1.16-4.18-2.43-5.57-7.78-3.13-11.84l51.23-88.68c2.44-4.18 7.78-5.57 11.85-3.13 4.18 2.44 5.57 7.78 3.13 11.85l-51.23 88.56c-1.62 2.8-4.53 4.4-7.55 4.4z"/>
</svg>
